<?xml version="1.0" encoding="utf-8"?>
<!-- Generator: Adobe Illustrator 24.2.3, SVG Export Plug-In . SVG Version: 6.00 Build 0)  -->
<svg version="1.1" id="Layer_1" xmlns="http://www.w3.org/2000/svg" xmlns:xlink="http://www.w3.org/1999/xlink" x="0px" y="0px"
	 viewBox="0 0 595.28 841.89" style="enable-background:new 0 0 595.28 841.89;" xml:space="preserve">
<style type="text/css">
	.st0{display:none;stroke:#E30613;stroke-miterlimit:10;}
	.st1{fill:none;stroke:#5AC2DB;stroke-width:2;stroke-miterlimit:10;}
	.st2{stroke:#5AC2DB;stroke-width:2;stroke-miterlimit:10;}
	.st3{fill:none;stroke:#EC6358;stroke-width:2;stroke-miterlimit:10;}
	.st4{stroke:#EC6358;stroke-width:2;stroke-miterlimit:10;}
	.st5{fill:none;stroke:#FFFFFF;stroke-width:1.5;stroke-miterlimit:10;}
	.st6{fill:#EC6358;}
	.st7{fill:#5AC2DB;}
	.st8{clip-path:url(#SVGID_2_);fill:#FFFFFF;}
	.st9{opacity:0;clip-path:url(#SVGID_2_);fill:none;stroke:#010202;stroke-width:8.159647e-07;stroke-miterlimit:10;}
	.st10{clip-path:url(#SVGID_4_);fill:#FFFFFF;}
	.st11{opacity:0;clip-path:url(#SVGID_4_);fill:none;stroke:#010202;stroke-width:7.631980e-07;stroke-miterlimit:10;}
	.st12{clip-path:url(#SVGID_6_);fill:#FFFFFF;}
	.st13{opacity:0;clip-path:url(#SVGID_6_);fill:none;stroke:#010202;stroke-width:8.337563e-07;stroke-miterlimit:10;}
	.st14{clip-path:url(#SVGID_8_);fill:#FFFFFF;}
	.st15{opacity:0;clip-path:url(#SVGID_8_);fill:none;stroke:#010202;stroke-width:7.459261e-07;stroke-miterlimit:10;}
</style>
<rect x="2.8" y="67.5" class="st0" width="592.48" height="325.84"/>
<circle class="st1" cx="48.12" cy="266.61" r="7.49"/>
<circle class="st1" cx="100.39" cy="266.61" r="7.49"/>
<rect x="35.18" y="238.23" class="st2" width="80.64" height="25.61"/>
<line class="st1" x1="41.9" y1="215.27" x2="35.18" y2="238.15"/>
<line class="st1" x1="86.39" y1="215.27" x2="100.88" y2="238.15"/>
<line class="st2" x1="41.61" y1="215.27" x2="86.39" y2="215.27"/>
<circle class="st3" cx="211.5" cy="266.61" r="7.49"/>
<circle class="st3" cx="263.77" cy="266.61" r="7.49"/>
<rect x="198.56" y="238.23" class="st4" width="80.64" height="25.61"/>
<line class="st3" x1="205.27" y1="215.27" x2="198.56" y2="238.15"/>
<line class="st3" x1="249.77" y1="215.27" x2="264.26" y2="238.15"/>
<line class="st4" x1="204.99" y1="215.27" x2="249.77" y2="215.27"/>
<line class="st5" x1="115.82" y1="281.04" x2="115.82" y2="303.96"/>
<line class="st5" x1="198.56" y1="281.04" x2="198.56" y2="303.96"/>
<line class="st5" x1="115.82" y1="292.5" x2="198.56" y2="292.5"/>
<g>
	<g>
		<line class="st3" x1="227.38" y1="192.18" x2="245.87" y2="192.18"/>
		<g>
			<polygon class="st6" points="259.99,192.18 240.09,200.31 244.82,192.18 240.09,184.05 			"/>
		</g>
	</g>
</g>
<g>
	<g>
		<line class="st1" x1="75.5" y1="192.18" x2="93.76" y2="192.18"/>
		<g>
			<polygon class="st7" points="107.88,192.18 87.98,200.31 92.71,192.18 87.98,184.05 			"/>
		</g>
	</g>
</g>
<g>
	<defs>
		<rect id="SVGID_1_" x="263.77" y="182.8" width="25.29" height="18.77"/>
	</defs>
	<clipPath id="SVGID_2_">
		<use xlink:href="#SVGID_1_"  style="overflow:visible;"/>
	</clipPath>
	<path class="st8" d="M277.4,185.28c0-1.58-0.76-2.05-1.29-2.05c-0.73,0-1.44,0.76-1.44,1.41c0,0.38,0.15,0.56,0.47,0.88
		c0.62,0.59,1,1.35,1,2.4c0,1.23-1.79,7.94-5.22,7.94c-1.49,0-2.17-1.03-2.17-2.55c0-1.64,0.79-3.78,1.7-6.21
		c0.2-0.5,0.35-0.91,0.35-1.47c0-1.32-0.94-2.4-2.4-2.4c-2.76,0-3.87,4.25-3.87,4.51c0,0.29,0.29,0.29,0.35,0.29
		c0.29,0,0.32-0.06,0.47-0.53c0.85-2.96,2.11-3.63,2.96-3.63c0.23,0,0.73,0,0.73,0.94c0,0.73-0.29,1.52-0.5,2.05
		c-1.29,3.4-1.67,4.75-1.67,6.01c0,3.16,2.58,3.63,3.93,3.63C275.73,196.5,277.4,186.8,277.4,185.28"/>
	<path class="st8" d="M283.61,200.42c-0.94,0-2.19-0.55-2.6-2.23c-0.29-1.21-0.29-2.88-0.29-4.4c0-1.49,0-3.05,0.31-4.17
		c0.43-1.62,1.74-2.04,2.58-2.04c1.1,0,2.17,0.67,2.54,1.86c0.33,1.1,0.35,2.58,0.35,4.36c0,1.51,0,3.03-0.27,4.31
		C285.82,199.97,284.43,200.42,283.61,200.42 M288.35,194.06c0-2.25-0.27-3.87-1.21-5.3c-0.63-0.94-1.9-1.76-3.54-1.76
		c-4.75,0-4.75,5.58-4.75,7.06c0,1.47,0,6.93,4.75,6.93C288.35,200.99,288.35,195.53,288.35,194.06z"/>
	<path class="st9" d="M276.42,192.18L276.42,192.18z"/>
</g>
<g>
	<defs>
		<rect id="SVGID_3_" x="150.32" y="307.04" width="13.74" height="19.84"/>
	</defs>
	<clipPath id="SVGID_4_">
		<use xlink:href="#SVGID_3_"  style="overflow:visible;"/>
	</clipPath>
	<path class="st10" d="M158.08,323.01c-0.14,0.49-0.14,0.55-0.55,1.01c-1.21,1.51-2.33,1.95-3.1,1.95c-1.37,0-1.75-1.51-1.75-2.58
		c0-1.37,0.88-4.74,1.51-6c0.85-1.62,2.08-2.63,3.18-2.63c1.78,0,2.17,2.25,2.17,2.41c0,0.16-0.05,0.33-0.08,0.47L158.08,323.01
		 M163.78,307.55c0-0.03,0-0.3-0.36-0.3c-0.41,0-3.01,0.25-3.48,0.3c-0.22,0.03-0.38,0.16-0.38,0.52c0,0.33,0.25,0.33,0.66,0.33
		c1.32,0,1.37,0.19,1.37,0.46l-0.08,0.55l-1.65,6.5c-0.49-1.01-1.29-1.75-2.52-1.75c-3.21,0-6.61,4.03-6.61,8.03
		c0,2.58,1.51,4.39,3.65,4.39c0.55,0,1.92-0.11,3.56-2.06c0.22,1.15,1.18,2.06,2.49,2.06c0.96,0,1.59-0.63,2.03-1.51
		c0.47-0.99,0.82-2.66,0.82-2.71c0-0.27-0.25-0.27-0.33-0.27c-0.27,0-0.3,0.11-0.38,0.49c-0.47,1.78-0.96,3.4-2.08,3.4
		c-0.74,0-0.82-0.71-0.82-1.26c0-0.66,0.05-0.85,0.16-1.32L163.78,307.55z"/>
	<path class="st11" d="M157.19,316.96L157.19,316.96z"/>
</g>
<g>
	<defs>
		<rect id="SVGID_5_" x="111.51" y="185.09" width="13.34" height="14.17"/>
	</defs>
	<clipPath id="SVGID_6_">
		<use xlink:href="#SVGID_5_"  style="overflow:visible;"/>
	</clipPath>
	<path class="st12" d="M124.77,187.63c0-1.62-0.78-2.1-1.32-2.1c-0.75,0-1.47,0.78-1.47,1.44c0,0.39,0.15,0.57,0.48,0.9
		c0.63,0.6,1.02,1.38,1.02,2.46c0,1.26-1.83,8.11-5.33,8.11c-1.53,0-2.22-1.05-2.22-2.61c0-1.68,0.81-3.86,1.74-6.35
		c0.21-0.51,0.36-0.93,0.36-1.5c0-1.35-0.96-2.45-2.45-2.45c-2.82,0-3.95,4.34-3.95,4.61c0,0.3,0.3,0.3,0.36,0.3
		c0.3,0,0.33-0.06,0.48-0.54c0.87-3.02,2.16-3.71,3.02-3.71c0.24,0,0.75,0,0.75,0.96c0,0.75-0.3,1.56-0.51,2.1
		c-1.32,3.47-1.71,4.85-1.71,6.14c0,3.23,2.64,3.71,4.01,3.71C123.07,199.1,124.77,189.18,124.77,187.63"/>
	<path class="st13" d="M118.18,192.18L118.18,192.18z"/>
</g>
<g>
	<g>
		<line class="st1" x1="75.5" y1="160.13" x2="118" y2="160.13"/>
		<g>
			<polygon class="st7" points="132.12,160.13 112.22,168.26 116.94,160.13 112.22,152 			"/>
		</g>
	</g>
</g>
<g>
	<defs>
		<rect id="SVGID_7_" x="135.23" y="153.95" width="14.17" height="12.68"/>
	</defs>
	<clipPath id="SVGID_8_">
		<use xlink:href="#SVGID_7_"  style="overflow:visible;"/>
	</clipPath>
	<path class="st14" d="M143.94,164.68c0.29,1.1,1.23,1.79,2.38,1.79c0.94,0,1.55-0.62,1.98-1.47c0.46-0.97,0.8-2.6,0.8-2.65
		c0-0.27-0.24-0.27-0.32-0.27c-0.27,0-0.29,0.11-0.38,0.48c-0.38,1.5-0.88,3.32-2.01,3.32c-0.56,0-0.83-0.35-0.83-1.23
		c0-0.59,0.32-1.85,0.54-2.79l0.75-2.89c0.08-0.4,0.35-1.42,0.46-1.82c0.13-0.62,0.4-1.63,0.4-1.79c0-0.48-0.38-0.72-0.78-0.72
		c-0.13,0-0.83,0.03-1.04,0.94c-0.51,1.96-1.69,6.64-2.01,8.06c-0.03,0.11-1.1,2.25-3.05,2.25c-1.39,0-1.66-1.21-1.66-2.2
		c0-1.5,0.75-3.62,1.45-5.47c0.32-0.8,0.45-1.18,0.45-1.69c0-1.21-0.86-2.2-2.2-2.2c-2.55,0-3.54,3.88-3.54,4.12
		c0,0.27,0.27,0.27,0.32,0.27c0.27,0,0.29-0.05,0.43-0.48c0.67-2.33,1.69-3.32,2.71-3.32c0.24,0,0.67,0.03,0.67,0.88
		c0,0.64-0.29,1.42-0.45,1.82c-0.99,2.65-1.55,4.31-1.55,5.63c0,2.54,1.85,3.21,3.3,3.21C142.52,166.48,143.48,165.27,143.94,164.68
		"/>
	<path class="st15" d="M142.32,160.29L142.32,160.29z"/>
</g>
<g>
	<g>
		<line class="st1" x1="75.5" y1="160.29" x2="106.43" y2="160.29"/>
		<g>
			<polygon class="st7" points="120.55,160.29 100.65,168.42 105.37,160.29 100.65,152.16 			"/>
		</g>
	</g>
</g>
</svg>
