<?xml version="1.0" encoding="utf-8"?>
<!-- Generator: Adobe Illustrator 24.2.3, SVG Export Plug-In . SVG Version: 6.00 Build 0)  -->
<svg version="1.1" id="Layer_1" xmlns="http://www.w3.org/2000/svg" xmlns:xlink="http://www.w3.org/1999/xlink" x="0px" y="0px"
	 viewBox="0 0 1920 1080" style="enable-background:new 0 0 1920 1080;" xml:space="preserve">
<style type="text/css">
	.st0{fill:#312782;fill-opacity:0.2;stroke:#312782;stroke-width:2.9348;stroke-miterlimit:10;}
	.st1{fill:#39A935;fill-opacity:0.2;stroke:#39A935;stroke-width:2.9348;stroke-miterlimit:10;}
	.st2{fill:#006633;fill-opacity:0.2;stroke:#006633;stroke-width:2.9348;stroke-miterlimit:10;}
	.st3{fill:none;stroke:#1D1D1B;stroke-width:5.8695;stroke-miterlimit:10;}
</style>
<path class="st0" d="M539.76,263.69c95.99-74.2,290.03-30.63,376.49,53.87s258.27,358,156.41,419.22s-452.81,164.15-532.9,99.83
	s16.42-163.99,20.31-281.32C563.97,437.97,485.98,305.27,539.76,263.69z"/>
<path class="st1" d="M909.51,260.48c-60.08-30.83-181.67-69.77-239.03,23.87c-57.36,93.64-86.42,572.67,68.92,594.27
	s518.72-215.11,502.35-282.21C1225.38,529.31,1027.52,321.03,909.51,260.48z"/>
<path class="st2" d="M748.01,266.51c-93.2,64.53-30.88,586.08,143.91,611.67s553.5-261.6,527.73-330.85S952.82,124.71,748.01,266.51
	z"/>
<path class="st3" d="M1071.97,737.8c-48.34,29.04-152.71,67.49-257.67,93.01c-114.35-136.06-145.16-509.6-67.19-563.58
	c12.92-8.96,26.78-15.92,41.44-21.14c49.92,16.24,95.53,41.55,126.92,72.24C1001.99,402.87,1173.9,676.54,1071.97,737.8z"/>
</svg>
