<?xml version="1.0" encoding="utf-8"?>
<!-- Generator: Adobe Illustrator 24.2.3, SVG Export Plug-In . SVG Version: 6.00 Build 0)  -->
<svg version="1.1" id="Layer_1" xmlns="http://www.w3.org/2000/svg" xmlns:xlink="http://www.w3.org/1999/xlink" x="0px" y="0px"
	 viewBox="0 0 595.28 841.89" style="enable-background:new 0 0 595.28 841.89;" xml:space="preserve">
<style type="text/css">
	.st0{fill:#312783;fill-opacity:0.2;stroke:#312783;stroke-miterlimit:10;}
	.st1{fill:none;stroke:#000000;stroke-miterlimit:10;}
	.st2{opacity:0;fill:none;stroke:#010202;stroke-width:1.000000e-06;stroke-miterlimit:10;}
	.st3{fill:none;stroke:#010202;stroke-miterlimit:10;}
	.st4{fill:#010202;}
	.st5{fill:#3AAA35;fill-opacity:0.2;stroke:#3AAA35;stroke-miterlimit:10;}
	.st6{fill:#006633;fill-opacity:0.2;stroke:#006633;stroke-miterlimit:10;}
	.st7{clip-path:url(#SVGID_2_);}
	.st8{clip-path:url(#SVGID_4_);fill:#312783;}
	.st9{opacity:0;clip-path:url(#SVGID_4_);fill:none;stroke:#010202;stroke-width:9.999999e-07;stroke-miterlimit:10;}
	.st10{clip-path:url(#SVGID_6_);fill:#3AAA35;}
	.st11{opacity:0;clip-path:url(#SVGID_6_);fill:none;stroke:#010202;stroke-width:9.999999e-07;stroke-miterlimit:10;}
	.st12{clip-path:url(#SVGID_8_);fill:#006633;}
	.st13{opacity:0;clip-path:url(#SVGID_8_);fill:none;stroke:#010202;stroke-width:9.999999e-07;stroke-miterlimit:10;}
	.st14{fill:none;stroke:#000000;stroke-width:2;stroke-miterlimit:10;}
	.st15{opacity:0;fill:none;stroke:#010202;stroke-width:9.999999e-07;stroke-miterlimit:10;}
</style>
<path class="st0" d="M150.08,284.91c32.71-25.28,98.82-10.44,128.29,18.36c29.46,28.79,88,121.98,53.29,142.85
	c-34.71,20.86-154.29,55.93-181.58,34.02s5.6-55.88,6.92-95.86S131.75,299.08,150.08,284.91z"/>
<path class="st1" d="M304,337.95"/>
<polygon class="st2" points="188.68,545.06 188.68,545.06 188.68,545.06 188.68,545.06 188.68,545.06 188.68,545.06 188.68,545.06 
	188.68,545.06 188.68,545.06 188.68,545.06 188.68,545.06 188.68,545.06 188.68,545.06 188.68,545.06 188.68,545.06 188.68,545.06 
	188.68,545.06 188.68,545.06 188.68,545.06 188.68,545.06 188.68,545.06 188.68,545.06 188.68,545.06 188.68,545.06 188.68,545.06 
	188.68,545.06 188.68,545.06 188.68,545.06 188.68,545.06 188.68,545.06 188.68,545.06 188.68,545.06 188.68,545.06 188.68,545.06 
	188.68,545.06 188.68,545.06 188.68,545.06 188.68,545.06 188.68,545.06 188.68,545.06 188.68,545.06 188.68,545.06 188.68,545.06 
	188.68,545.06 188.68,545.06 188.68,545.06 188.68,545.06 188.68,545.06 188.68,545.06 188.68,545.06 188.68,545.06 188.68,545.06 
	188.68,545.06 188.68,545.06 188.68,545.06 188.68,545.06 188.68,545.06 188.68,545.06 188.68,545.06 188.68,545.06 188.68,545.06 
	188.68,545.06 188.68,545.06 188.68,545.06 188.68,545.06 188.68,545.06 188.68,545.06 188.68,545.06 188.68,545.06 188.68,545.06 
	188.68,545.06 188.68,545.06 188.68,545.06 188.68,545.06 188.68,545.06 188.68,545.06 188.68,545.06 188.68,545.06 188.68,545.06 
	188.68,545.06 188.68,545.06 188.68,545.06 188.68,545.06 188.68,545.06 188.68,545.06 188.68,545.06 188.68,545.06 188.68,545.06 
	"/>
<polygon class="st2" points="446.54,571.22 446.54,571.22 446.54,571.22 446.54,571.22 446.54,571.22 446.54,571.22 446.54,571.22 
	446.54,571.22 446.54,571.22 446.54,571.22 446.54,571.22 446.54,571.22 446.54,571.22 446.54,571.22 446.54,571.22 446.54,571.22 
	446.54,571.22 446.54,571.22 446.54,571.22 446.54,571.22 446.54,571.22 446.54,571.22 446.54,571.22 446.54,571.22 446.54,571.22 
	446.54,571.22 446.54,571.22 446.54,571.22 446.54,571.22 446.54,571.22 446.54,571.22 446.54,571.22 446.54,571.22 446.54,571.22 
	446.54,571.22 446.54,571.22 446.54,571.22 446.54,571.22 446.54,571.22 446.54,571.22 446.54,571.22 446.54,571.22 446.54,571.22 
	446.54,571.22 446.54,571.22 446.54,571.22 446.54,571.22 446.54,571.22 446.54,571.22 446.54,571.22 446.54,571.22 446.54,571.22 
	446.54,571.22 446.54,571.22 446.54,571.22 446.54,571.22 446.54,571.22 446.54,571.22 446.54,571.22 446.54,571.22 446.54,571.22 
	446.54,571.22 446.54,571.22 446.54,571.22 446.54,571.22 446.54,571.22 446.54,571.22 446.54,571.22 446.54,571.22 446.54,571.22 
	446.54,571.22 446.54,571.22 446.54,571.22 446.54,571.22 446.54,571.22 446.54,571.22 446.54,571.22 446.54,571.22 446.54,571.22 
	446.54,571.22 446.54,571.22 446.54,571.22 446.54,571.22 446.54,571.22 446.54,571.22 446.54,571.22 446.54,571.22 446.54,571.22 
	446.54,571.22 "/>
<line class="st3" x1="158.25" y1="526.79" x2="184.41" y2="475.57"/>
<g>
	<g>
		<path class="st3" d="M170.67,444.5c-11.18-12.01-27.29-33.99-30.73-53.19"/>
		<g>
			<path class="st4" d="M172.03,443.14c0.7,0.77,0.64,1.96-0.13,2.66c-0.77,0.7-1.96,0.64-2.66-0.13c-0.7-0.77-0.64-1.96,0.13-2.66
				C170.14,442.31,171.33,442.37,172.03,443.14z"/>
		</g>
		<g>
			<polygon class="st4" points="139.28,384.27 144.37,393.74 140.08,391.82 136.28,394.59 			"/>
		</g>
	</g>
</g>
<path class="st5" d="M276.07,283.81c-20.47-10.51-61.9-23.77-81.45,8.13s-29.45,195.13,23.49,202.49s176.75-73.3,171.17-96.16
	C383.7,375.42,316.28,304.45,276.07,283.81z"/>
<path class="st6" d="M221.04,285.87c-31.76,21.99-10.52,199.7,49.04,208.42s188.6-89.14,179.82-112.73
	C441.11,357.96,290.83,237.55,221.04,285.87z"/>
<g>
	<defs>
		<rect id="SVGID_1_" x="336.44" y="538.61" width="184.38" height="18.5"/>
	</defs>
	<clipPath id="SVGID_2_">
		<use xlink:href="#SVGID_1_"  style="overflow:visible;"/>
	</clipPath>
	<path class="st7" d="M348.24,552.66c0-0.14-0.12-0.16-0.23-0.16c-0.4,0-0.96,0.35-0.98,0.35c-0.47,0.3-0.56,0.47-0.84,0.87
		c-0.73,1.1-1.76,1.89-3.28,1.89c-2.11,0-4-1.52-4-5.03c0-2.11,0.84-4.89,2.08-6.74c1.03-1.5,2.29-2.71,4.7-2.71
		c0.89,0,1.45,0.33,1.45,1.19c0,0.82-0.87,2.48-1.15,2.95c-0.14,0.26-0.14,0.3-0.14,0.35c0,0.16,0.12,0.16,0.26,0.16
		c0.47,0,1.33-0.52,1.61-0.89c0.05-0.09,1.4-2.39,1.4-3.58c0-1.29-1.05-1.47-1.9-1.47c-3.39,0-6.18,2.22-7.25,3.53
		c-2.78,3.37-3.07,7-3.07,8.21c0,3.42,1.73,5.31,4.45,5.31C345.13,556.9,348.24,553.24,348.24,552.66"/>
	<path class="st7" d="M355.59,542.62c1.34-0.59,1.94-0.82,2.35-1.01c0.31-0.13,0.46-0.2,0.46-0.51c0-0.28-0.21-0.52-0.51-0.52
		c-0.11,0-0.15,0-0.34,0.15l-2.22,1.49l0.25-2.42c0.03-0.29,0-0.7-0.49-0.7c-0.2,0-0.51,0.13-0.51,0.49c0,0.15,0.07,0.64,0.08,0.8
		c0.03,0.28,0.15,1.45,0.18,1.83l-2.2-1.49c-0.16-0.1-0.21-0.15-0.36-0.15c-0.29,0-0.51,0.24-0.51,0.52c0,0.33,0.2,0.41,0.34,0.47
		l2.47,1.03c-1.34,0.59-1.94,0.82-2.35,1.01c-0.31,0.13-0.46,0.2-0.46,0.51c0,0.28,0.21,0.52,0.51,0.52c0.11,0,0.15,0,0.34-0.15
		l2.22-1.49l-0.26,2.63c0,0.36,0.31,0.49,0.51,0.49c0.2,0,0.51-0.13,0.51-0.49c0-0.15-0.07-0.64-0.08-0.8
		c-0.03-0.28-0.15-1.45-0.18-1.83l1.96,1.31c0.42,0.33,0.46,0.33,0.6,0.33c0.29,0,0.51-0.25,0.51-0.52c0-0.33-0.2-0.41-0.34-0.47
		L355.59,542.62"/>
	<path class="st7" d="M365.49,555.09c0-0.68-0.56-1.24-1.24-1.24c-0.68,0-1.24,0.56-1.24,1.24c0,0.68,0.56,1.24,1.24,1.24
		C364.93,556.33,365.49,555.77,365.49,555.09 M365.49,547.49c0-0.68-0.56-1.24-1.24-1.24c-0.68,0-1.24,0.56-1.24,1.24
		c0,0.68,0.56,1.24,1.24,1.24C364.93,548.73,365.49,548.17,365.49,547.49z"/>
	<path class="st7" d="M383.14,542.18c0-0.84,0.07-1.1,1.92-1.1h0.61v-0.73c-0.82,0.07-2.67,0.07-3.56,0.07c-0.91,0-2.76,0-3.58-0.07
		v0.73h0.61c1.85,0,1.92,0.26,1.92,1.1v12.33c0,0.84-0.07,1.1-1.92,1.1h-0.61v0.73c0.82-0.07,2.67-0.07,3.56-0.07
		c0.91,0,2.76,0,3.58,0.07v-0.73h-0.61c-1.85,0-1.92-0.26-1.92-1.1V542.18"/>
	<path class="st7" d="M388.92,548.28v6.27c0,1.05-0.26,1.05-1.82,1.05v0.73c0.82-0.02,2.01-0.07,2.64-0.07
		c0.61,0,1.83,0.05,2.62,0.07v-0.73c-1.57,0-1.83,0-1.83-1.05v-4.31c0-2.43,1.66-3.74,3.16-3.74c1.47,0,1.73,1.26,1.73,2.6v5.45
		c0,1.05-0.26,1.05-1.83,1.05v0.73c0.82-0.02,2.01-0.07,2.64-0.07c0.61,0,1.83,0.05,2.62,0.07v-0.73c-1.22,0-1.8,0-1.83-0.7v-4.47
		c0-2.01,0-2.74-0.72-3.58c-0.33-0.4-1.1-0.87-2.46-0.87c-1.71,0-2.81,1.01-3.46,2.46v-2.46l-3.3,0.26v0.73
		C388.73,546.97,388.92,547.14,388.92,548.28"/>
	<path class="st7" d="M401.88,548.28v6.27c0,1.05-0.26,1.05-1.82,1.05v0.73c0.82-0.02,2.01-0.07,2.64-0.07
		c0.61,0,1.82,0.05,2.62,0.07v-0.73c-1.57,0-1.83,0-1.83-1.05v-4.31c0-2.43,1.66-3.74,3.16-3.74c1.47,0,1.73,1.26,1.73,2.6v5.45
		c0,1.05-0.26,1.05-1.82,1.05v0.73c0.82-0.02,2.01-0.07,2.64-0.07c0.61,0,1.83,0.05,2.62,0.07v-0.73c-1.22,0-1.8,0-1.82-0.7v-4.47
		c0-2.01,0-2.74-0.73-3.58c-0.33-0.4-1.1-0.87-2.46-0.87c-1.71,0-2.81,1.01-3.46,2.46v-2.46l-3.3,0.26v0.73
		C401.7,546.97,401.88,547.14,401.88,548.28"/>
	<path class="st7" d="M414.87,550.93h6.53c0.52,0,0.59,0,0.59-0.49c0-2.32-1.26-4.59-4.19-4.59c-2.71,0-4.87,2.41-4.87,5.33
		c0,3.14,2.46,5.41,5.15,5.41c2.86,0,3.91-2.6,3.91-3.04c0-0.23-0.19-0.28-0.3-0.28c-0.21,0-0.26,0.14-0.3,0.33
		c-0.82,2.41-2.92,2.41-3.16,2.41c-1.17,0-2.11-0.7-2.64-1.57C414.87,553.32,414.87,551.77,414.87,550.93 M414.9,550.44
		c0.14-3.49,2.11-4.07,2.9-4.07c2.41,0,2.64,3.16,2.64,4.07H414.9z"/>
	<path class="st7" d="M426.61,548.56v-2.57l-3.25,0.26v0.73c1.64,0,1.82,0.16,1.82,1.31v6.27c0,1.05-0.26,1.05-1.82,1.05v0.73
		c0.91-0.02,2.01-0.07,2.67-0.07c0.94,0,2.04,0,2.97,0.07v-0.73h-0.49c-1.73,0-1.78-0.26-1.78-1.1v-3.6c0-2.32,0.98-4.4,2.76-4.4
		c0.16,0,0.21,0,0.26,0.02c-0.07,0.02-0.54,0.3-0.54,0.91c0,0.65,0.49,1.01,1.01,1.01c0.42,0,1.01-0.28,1.01-1.03
		c0-0.75-0.73-1.43-1.73-1.43C427.78,545.99,426.94,547.56,426.61,548.56"/>
	<path class="st7" d="M447.81,547.25l-2.99-0.73c-1.45-0.35-2.36-1.61-2.36-2.97c0-1.64,1.26-3.07,3.09-3.07
		c3.91,0,4.42,3.84,4.56,4.89c0.02,0.14,0.02,0.28,0.28,0.28c0.3,0,0.3-0.12,0.3-0.56v-4.7c0-0.4,0-0.56-0.26-0.56
		c-0.16,0-0.19,0.02-0.35,0.3l-0.82,1.33c-0.7-0.68-1.66-1.64-3.74-1.64c-2.6,0-4.56,2.06-4.56,4.54c0,1.94,1.24,3.65,3.07,4.28
		c0.26,0.09,1.45,0.37,3.09,0.77c0.63,0.16,1.33,0.33,1.99,1.19c0.49,0.61,0.73,1.38,0.73,2.15c0,1.66-1.17,3.35-3.14,3.35
		c-0.68,0-2.46-0.12-3.7-1.26c-1.36-1.26-1.43-2.76-1.45-3.6c-0.02-0.23-0.21-0.23-0.28-0.23c-0.3,0-0.3,0.16-0.3,0.59v4.68
		c0,0.4,0,0.56,0.26,0.56c0.16,0,0.19-0.05,0.35-0.3c0-0.02,0.07-0.09,0.84-1.33c0.73,0.8,2.22,1.64,4.3,1.64
		c2.74,0,4.61-2.29,4.61-4.87C451.32,549.64,449.77,547.72,447.81,547.25"/>
	<path class="st7" d="M460.23,550.72v2.34c0,2.22-1.68,3.02-2.74,3.02c-1.15,0-2.11-0.82-2.11-1.99
		C455.39,552.8,456.37,550.86,460.23,550.72 M460.4,554.55c0.09,0.94,0.73,1.92,1.83,1.92c0.49,0,1.92-0.33,1.92-2.22v-1.31h-0.59
		v1.31c0,1.36-0.59,1.5-0.84,1.5c-0.77,0-0.87-1.05-0.87-1.17v-4.68c0-0.98,0-1.9-0.84-2.76c-0.91-0.91-2.08-1.29-3.21-1.29
		c-1.92,0-3.53,1.1-3.53,2.64c0,0.7,0.47,1.1,1.08,1.1c0.66,0,1.08-0.47,1.08-1.08c0-0.28-0.12-1.05-1.19-1.08
		c0.63-0.82,1.78-1.08,2.53-1.08c1.15,0,2.48,0.91,2.48,3v0.87c-1.19,0.07-2.83,0.14-4.31,0.84c-1.76,0.8-2.34,2.01-2.34,3.04
		c0,1.9,2.27,2.48,3.74,2.48C458.88,556.59,459.95,555.65,460.4,554.55z"/>
	<path class="st7" d="M468.43,546.25v-2.71c0-2.06,1.12-3.18,2.15-3.18c0.07,0,0.42,0,0.77,0.16c-0.28,0.09-0.7,0.4-0.7,0.98
		c0,0.54,0.37,1.01,1.01,1.01c0.68,0,1.03-0.47,1.03-1.03c0-0.87-0.87-1.64-2.11-1.64c-1.64,0-3.63,1.24-3.63,3.72v2.69h-1.85v0.73
		h1.85v7.58c0,1.05-0.26,1.05-1.83,1.05v0.73c0.91-0.02,2.01-0.07,2.67-0.07c0.94,0,2.03,0,2.97,0.07v-0.73h-0.49
		c-1.73,0-1.78-0.26-1.78-1.1v-7.53h2.67v-0.73H468.43"/>
	<path class="st7" d="M474.03,550.93h6.53c0.52,0,0.59,0,0.59-0.49c0-2.32-1.26-4.59-4.19-4.59c-2.71,0-4.87,2.41-4.87,5.33
		c0,3.14,2.46,5.41,5.15,5.41c2.86,0,3.91-2.6,3.91-3.04c0-0.23-0.19-0.28-0.3-0.28c-0.21,0-0.26,0.14-0.3,0.33
		c-0.82,2.41-2.92,2.41-3.16,2.41c-1.17,0-2.11-0.7-2.64-1.57C474.03,553.32,474.03,551.77,474.03,550.93 M474.06,550.44
		c0.14-3.49,2.11-4.07,2.9-4.07c2.41,0,2.64,3.16,2.64,4.07H474.06z"/>
	<path class="st7" d="M497.78,547.25l-2.99-0.73c-1.45-0.35-2.36-1.61-2.36-2.97c0-1.64,1.26-3.07,3.09-3.07
		c3.91,0,4.42,3.84,4.56,4.89c0.02,0.14,0.02,0.28,0.28,0.28c0.3,0,0.3-0.12,0.3-0.56v-4.7c0-0.4,0-0.56-0.26-0.56
		c-0.16,0-0.19,0.02-0.35,0.3l-0.82,1.33c-0.7-0.68-1.66-1.64-3.74-1.64c-2.6,0-4.56,2.06-4.56,4.54c0,1.94,1.24,3.65,3.07,4.28
		c0.26,0.09,1.45,0.37,3.09,0.77c0.63,0.16,1.33,0.33,1.99,1.19c0.49,0.61,0.73,1.38,0.73,2.15c0,1.66-1.17,3.35-3.14,3.35
		c-0.68,0-2.46-0.12-3.7-1.26c-1.36-1.26-1.43-2.76-1.45-3.6c-0.02-0.23-0.21-0.23-0.28-0.23c-0.3,0-0.3,0.16-0.3,0.59v4.68
		c0,0.4,0,0.56,0.26,0.56c0.16,0,0.19-0.05,0.35-0.3c0-0.02,0.07-0.09,0.84-1.33c0.73,0.8,2.22,1.64,4.3,1.64
		c2.74,0,4.61-2.29,4.61-4.87C501.29,549.64,499.75,547.72,497.78,547.25"/>
	<path class="st7" d="M505.18,550.93h6.53c0.52,0,0.59,0,0.59-0.49c0-2.32-1.26-4.59-4.19-4.59c-2.71,0-4.87,2.41-4.87,5.33
		c0,3.14,2.46,5.41,5.15,5.41c2.86,0,3.91-2.6,3.91-3.04c0-0.23-0.19-0.28-0.3-0.28c-0.21,0-0.26,0.14-0.3,0.33
		c-0.82,2.41-2.92,2.41-3.16,2.41c-1.17,0-2.11-0.7-2.64-1.57C505.18,553.32,505.18,551.77,505.18,550.93 M505.2,550.44
		c0.14-3.49,2.11-4.07,2.9-4.07c2.41,0,2.64,3.16,2.64,4.07H505.2z"/>
	<path class="st7" d="M517.05,546.97h3.35v-0.73h-3.35v-4.31h-0.58c-0.02,1.92-0.73,4.42-3.02,4.52v0.52h1.99v6.46
		c0,2.88,2.18,3.16,3.02,3.16c1.66,0,2.32-1.66,2.32-3.16v-1.33h-0.59v1.29c0,1.73-0.7,2.62-1.57,2.62c-1.57,0-1.57-2.13-1.57-2.53
		V546.97"/>
</g>
<g>
	<defs>
		<rect id="SVGID_3_" x="78.46" y="539.6" width="110.24" height="17.01"/>
	</defs>
	<clipPath id="SVGID_4_">
		<use xlink:href="#SVGID_3_"  style="overflow:visible;"/>
	</clipPath>
	<path class="st8" d="M81.19,551.15c0.27-0.11,1.06-0.61,1.06-0.93c0-0.16-0.14-0.16-0.27-0.16c-0.77,0-2.99,0.97-2.99,3.24
		c0,1.63,1.83,3.3,4.59,3.3c3.69,0,7.96-2.56,7.96-5.63c0-2.15-2.26-3.19-4.09-4c-1.58-0.72-2.62-1.65-2.62-2.94
		c0-0.48,0.2-1.36,0.9-1.97c0.68-0.59,1.95-0.66,2.26-0.66c0.25,0,1.2,0.02,2.17,0.45c0.43,0.2,1.02,0.48,1.02,1.45
		c0,0.32-0.02,0.43-0.09,0.68c-0.02,0.07-0.05,0.16-0.05,0.23c0,0.16,0.14,0.16,0.23,0.16c0.29,0,0.84-0.23,1.29-0.61
		c0.29-0.23,0.54-0.52,0.54-1.4c0-1.11-0.59-1.43-1.2-1.7c-1.06-0.5-2.1-0.5-2.42-0.5c-2.96,0-6.58,2.26-6.58,4.84
		c0,1.9,1.97,2.81,3.05,3.28c1.61,0.72,3.67,1.76,3.67,3.67c0,1.52-1.11,3.42-4.55,3.42c-2.31,0-4.16-1.49-4.16-3.03
		C80.92,551.92,81.03,551.51,81.19,551.15"/>
	<path class="st8" d="M98.3,554.91c0-0.66-0.54-1.2-1.2-1.2c-0.66,0-1.2,0.54-1.2,1.2c0,0.66,0.54,1.2,1.2,1.2
		C97.76,556.11,98.3,555.56,98.3,554.91 M98.3,547.56c0-0.66-0.54-1.2-1.2-1.2c-0.66,0-1.2,0.54-1.2,1.2c0,0.66,0.54,1.2,1.2,1.2
		C97.76,548.75,98.3,548.21,98.3,547.56z"/>
	<path class="st8" d="M118.17,547.33l-2.9-0.7c-1.4-0.34-2.29-1.56-2.29-2.87c0-1.58,1.22-2.96,2.99-2.96
		c3.78,0,4.28,3.71,4.41,4.73c0.02,0.14,0.02,0.27,0.27,0.27c0.29,0,0.29-0.11,0.29-0.54v-4.55c0-0.38,0-0.54-0.25-0.54
		c-0.16,0-0.18,0.02-0.34,0.29l-0.79,1.29c-0.68-0.66-1.61-1.58-3.62-1.58c-2.51,0-4.41,1.99-4.41,4.39c0,1.88,1.2,3.53,2.96,4.14
		c0.25,0.09,1.4,0.36,2.99,0.75c0.61,0.16,1.29,0.32,1.92,1.15c0.48,0.59,0.7,1.33,0.7,2.08c0,1.61-1.13,3.24-3.03,3.24
		c-0.66,0-2.38-0.11-3.57-1.22c-1.31-1.22-1.38-2.67-1.4-3.48c-0.02-0.23-0.2-0.23-0.27-0.23c-0.29,0-0.29,0.16-0.29,0.57v4.52
		c0,0.38,0,0.54,0.25,0.54c0.16,0,0.18-0.05,0.34-0.29c0-0.02,0.07-0.09,0.81-1.29c0.7,0.77,2.15,1.58,4.16,1.58
		c2.65,0,4.46-2.22,4.46-4.71C121.56,549.64,120.07,547.78,118.17,547.33"/>
	<path class="st8" d="M130.18,550.68v2.26c0,2.15-1.63,2.92-2.65,2.92c-1.11,0-2.04-0.79-2.04-1.92
		C125.5,552.69,126.45,550.81,130.18,550.68 M130.34,554.39c0.09,0.91,0.7,1.86,1.76,1.86c0.48,0,1.86-0.32,1.86-2.15v-1.27h-0.57
		v1.27c0,1.31-0.57,1.45-0.81,1.45c-0.75,0-0.84-1.02-0.84-1.13v-4.52c0-0.95,0-1.83-0.81-2.67c-0.88-0.88-2.01-1.24-3.1-1.24
		c-1.86,0-3.42,1.06-3.42,2.56c0,0.68,0.45,1.06,1.04,1.06c0.63,0,1.04-0.45,1.04-1.04c0-0.27-0.11-1.02-1.15-1.04
		c0.61-0.79,1.72-1.04,2.44-1.04c1.11,0,2.4,0.88,2.4,2.9v0.84c-1.15,0.07-2.74,0.14-4.16,0.81c-1.7,0.77-2.26,1.95-2.26,2.94
		c0,1.83,2.19,2.4,3.62,2.4C128.87,556.36,129.91,555.45,130.34,554.39z"/>
	<path class="st8" d="M138.04,546.36v-2.62c0-1.99,1.09-3.08,2.08-3.08c0.07,0,0.41,0,0.75,0.16c-0.27,0.09-0.68,0.38-0.68,0.95
		c0,0.52,0.36,0.97,0.97,0.97c0.66,0,1-0.45,1-1c0-0.84-0.84-1.58-2.04-1.58c-1.58,0-3.51,1.2-3.51,3.6v2.6h-1.79v0.7h1.79v7.33
		c0,1.02-0.25,1.02-1.76,1.02v0.7c0.88-0.02,1.95-0.07,2.58-0.07c0.9,0,1.97,0,2.87,0.07v-0.7h-0.48c-1.67,0-1.72-0.25-1.72-1.06
		v-7.28h2.58v-0.7H138.04"/>
	<path class="st8" d="M143.52,550.88h6.31c0.5,0,0.57,0,0.57-0.47c0-2.24-1.22-4.43-4.05-4.43c-2.62,0-4.7,2.33-4.7,5.16
		c0,3.03,2.38,5.23,4.98,5.23c2.76,0,3.78-2.51,3.78-2.94c0-0.23-0.18-0.27-0.29-0.27c-0.2,0-0.25,0.14-0.29,0.32
		c-0.79,2.33-2.83,2.33-3.05,2.33c-1.13,0-2.04-0.68-2.56-1.52C143.52,553.19,143.52,551.7,143.52,550.88 M143.55,550.41
		c0.14-3.37,2.04-3.94,2.81-3.94c2.33,0,2.56,3.05,2.56,3.94H143.55z"/>
	<path class="st8" d="M166.48,547.33l-2.9-0.7c-1.4-0.34-2.29-1.56-2.29-2.87c0-1.58,1.22-2.96,2.99-2.96
		c3.78,0,4.28,3.71,4.41,4.73c0.02,0.14,0.02,0.27,0.27,0.27c0.29,0,0.29-0.11,0.29-0.54v-4.55c0-0.38,0-0.54-0.25-0.54
		c-0.16,0-0.18,0.02-0.34,0.29l-0.79,1.29c-0.68-0.66-1.61-1.58-3.62-1.58c-2.51,0-4.41,1.99-4.41,4.39c0,1.88,1.2,3.53,2.96,4.14
		c0.25,0.09,1.4,0.36,2.99,0.75c0.61,0.16,1.29,0.32,1.92,1.15c0.48,0.59,0.7,1.33,0.7,2.08c0,1.61-1.13,3.24-3.03,3.24
		c-0.66,0-2.38-0.11-3.57-1.22c-1.31-1.22-1.38-2.67-1.4-3.48c-0.02-0.23-0.2-0.23-0.27-0.23c-0.29,0-0.29,0.16-0.29,0.57v4.52
		c0,0.38,0,0.54,0.25,0.54c0.16,0,0.18-0.05,0.34-0.29c0-0.02,0.07-0.09,0.81-1.29c0.7,0.77,2.15,1.58,4.16,1.58
		c2.65,0,4.46-2.22,4.46-4.71C169.88,549.64,168.38,547.78,166.48,547.33"/>
	<path class="st8" d="M173.63,550.88h6.31c0.5,0,0.57,0,0.57-0.47c0-2.24-1.22-4.43-4.05-4.43c-2.62,0-4.7,2.33-4.7,5.16
		c0,3.03,2.38,5.23,4.98,5.23c2.76,0,3.78-2.51,3.78-2.94c0-0.23-0.18-0.27-0.29-0.27c-0.2,0-0.25,0.14-0.29,0.32
		c-0.79,2.33-2.83,2.33-3.05,2.33c-1.13,0-2.04-0.68-2.56-1.52C173.63,553.19,173.63,551.7,173.63,550.88 M173.66,550.41
		c0.14-3.37,2.04-3.94,2.81-3.94c2.33,0,2.56,3.05,2.56,3.94H173.66z"/>
	<path class="st8" d="M185.12,547.06h3.23v-0.7h-3.23v-4.16h-0.57c-0.02,1.86-0.7,4.28-2.92,4.37v0.5h1.92v6.24
		c0,2.78,2.1,3.05,2.92,3.05c1.61,0,2.24-1.61,2.24-3.05v-1.29h-0.57v1.24c0,1.67-0.68,2.53-1.52,2.53c-1.52,0-1.52-2.06-1.52-2.44
		V547.06"/>
	<path class="st9" d="M133.58,548.42"/>
</g>
<polygon class="st2" points="280.16,560.45 280.16,560.45 280.16,560.45 280.16,560.45 280.16,560.45 280.16,560.45 280.16,560.45 
	280.16,560.45 280.16,560.45 280.16,560.45 280.16,560.45 280.16,560.45 280.16,560.45 280.16,560.45 280.16,560.45 280.16,560.45 
	280.16,560.45 280.16,560.45 280.16,560.45 280.16,560.45 280.16,560.45 280.16,560.45 280.16,560.45 280.16,560.45 280.16,560.45 
	280.16,560.45 280.16,560.45 280.16,560.45 280.16,560.45 280.16,560.45 280.16,560.45 280.16,560.45 280.16,560.45 280.16,560.45 
	280.16,560.45 280.16,560.45 280.16,560.45 280.16,560.45 280.16,560.45 280.16,560.45 280.16,560.45 280.16,560.45 280.16,560.45 
	280.16,560.45 280.16,560.45 280.16,560.45 280.16,560.45 280.16,560.45 280.16,560.45 280.16,560.45 280.16,560.45 280.16,560.45 
	280.16,560.45 280.16,560.45 280.16,560.45 280.16,560.45 280.16,560.45 280.16,560.45 280.16,560.45 280.16,560.45 280.16,560.45 
	280.16,560.45 280.16,560.45 280.16,560.45 280.16,560.45 280.16,560.45 280.16,560.45 280.16,560.45 280.16,560.45 280.16,560.45 
	280.16,560.45 280.16,560.45 280.16,560.45 280.16,560.45 280.16,560.45 280.16,560.45 280.16,560.45 280.16,560.45 280.16,560.45 
	280.16,560.45 280.16,560.45 280.16,560.45 280.16,560.45 280.16,560.45 280.16,560.45 280.16,560.45 280.16,560.45 280.16,560.45 
	280.16,560.45 280.16,560.45 "/>
<g>
	<defs>
		<rect id="SVGID_5_" x="216.56" y="539.6" width="19.22" height="19.84"/>
	</defs>
	<clipPath id="SVGID_6_">
		<use xlink:href="#SVGID_5_"  style="overflow:visible;"/>
	</clipPath>
	<path class="st10" d="M227.42,551.98c0-0.13-0.11-0.16-0.22-0.16c-0.38,0-0.91,0.33-0.94,0.33c-0.44,0.29-0.53,0.45-0.8,0.82
		c-0.69,1.05-1.67,1.8-3.12,1.8c-2,0-3.81-1.45-3.81-4.79c0-2,0.8-4.65,1.98-6.41c0.98-1.43,2.18-2.58,4.48-2.58
		c0.85,0,1.38,0.31,1.38,1.14c0,0.78-0.82,2.36-1.09,2.81c-0.13,0.25-0.13,0.29-0.13,0.33c0,0.16,0.11,0.16,0.25,0.16
		c0.45,0,1.27-0.49,1.54-0.85c0.04-0.09,1.34-2.27,1.34-3.41c0-1.23-1-1.4-1.8-1.4c-3.23,0-5.88,2.12-6.9,3.36
		c-2.65,3.21-2.92,6.66-2.92,7.82c0,3.25,1.65,5.06,4.23,5.06C224.46,556.01,227.42,552.54,227.42,551.98"/>
	<path class="st10" d="M233.3,548.94c0-0.42-0.03-0.44-0.47-0.44c-0.99,0.98-2.41,1-3.05,1v0.56c0.37,0,1.4,0,2.25-0.44v7.93
		c0,0.51,0,0.72-1.55,0.72h-0.59v0.56c0.28-0.02,2.19-0.06,2.77-0.06c0.48,0,2.44,0.05,2.78,0.06v-0.56h-0.59
		c-1.55,0-1.55-0.2-1.55-0.72V548.94"/>
	<path class="st11" d="M226.17,549.53"/>
</g>
<g>
	<defs>
		<rect id="SVGID_7_" x="257.8" y="539.6" width="19.84" height="19.84"/>
	</defs>
	<clipPath id="SVGID_8_">
		<use xlink:href="#SVGID_7_"  style="overflow:visible;"/>
	</clipPath>
	<path class="st12" d="M268.66,551.98c0-0.13-0.11-0.16-0.22-0.16c-0.38,0-0.91,0.33-0.94,0.33c-0.44,0.29-0.53,0.45-0.8,0.82
		c-0.69,1.05-1.67,1.8-3.12,1.8c-2,0-3.81-1.45-3.81-4.79c0-2,0.8-4.65,1.98-6.41c0.98-1.43,2.18-2.58,4.48-2.58
		c0.85,0,1.38,0.31,1.38,1.14c0,0.78-0.82,2.36-1.09,2.81c-0.13,0.25-0.13,0.29-0.13,0.33c0,0.16,0.11,0.16,0.25,0.16
		c0.45,0,1.27-0.49,1.54-0.85c0.04-0.09,1.34-2.27,1.34-3.41c0-1.23-1-1.4-1.8-1.4c-3.23,0-5.88,2.12-6.9,3.36
		c-2.65,3.21-2.92,6.66-2.92,7.82c0,3.25,1.65,5.06,4.23,5.06C265.69,556.01,268.66,552.54,268.66,551.98"/>
	<path class="st12" d="M277.18,556h-0.53c-0.05,0.34-0.2,1.26-0.4,1.41c-0.12,0.09-1.32,0.09-1.54,0.09h-2.86
		c1.63-1.45,2.18-1.88,3.11-2.61c1.15-0.92,2.22-1.88,2.22-3.36c0-1.88-1.65-3.03-3.64-3.03c-1.93,0-3.23,1.35-3.23,2.78
		c0,0.79,0.67,0.87,0.82,0.87c0.37,0,0.82-0.26,0.82-0.82c0-0.28-0.11-0.82-0.92-0.82c0.48-1.1,1.54-1.45,2.27-1.45
		c1.55,0,2.36,1.21,2.36,2.47c0,1.35-0.96,2.42-1.46,2.98l-3.75,3.7c-0.16,0.14-0.16,0.17-0.16,0.61h6.4L277.18,556"/>
	<path class="st13" d="M267.72,549.53"/>
</g>
<line class="st3" x1="229.47" y1="487.08" x2="226.17" y2="527.37"/>
<line class="st3" x1="280.16" y1="488.97" x2="271.97" y2="530.64"/>
<path class="st14" d="M331.42,446.46c-16.47,9.9-52.03,23-87.8,31.69c-38.97-46.36-49.46-173.64-22.9-192.04
	c4.4-3.05,9.13-5.42,14.12-7.2c17.01,5.53,32.55,14.16,43.25,24.62C307.58,332.33,366.16,425.59,331.42,446.46z"/>
<g>
	<path d="M293.61,553.95c0-0.77-0.64-1.4-1.4-1.4c-0.77,0-1.4,0.64-1.4,1.4c0,0.77,0.64,1.4,1.4,1.4
		C292.98,555.35,293.61,554.72,293.61,553.95"/>
	<path d="M300.99,553.95c0-0.77-0.64-1.4-1.4-1.4c-0.77,0-1.4,0.64-1.4,1.4c0,0.77,0.64,1.4,1.4,1.4
		C300.36,555.35,300.99,554.72,300.99,553.95"/>
	<path d="M308.37,553.95c0-0.77-0.64-1.4-1.4-1.4c-0.77,0-1.4,0.64-1.4,1.4c0,0.77,0.64,1.4,1.4,1.4
		C307.74,555.35,308.37,554.72,308.37,553.95"/>
	<path class="st15" d="M285.5,548.27"/>
</g>
<line class="st3" x1="280.16" y1="451.63" x2="342.33" y2="536.09"/>
<g>
	<g>
		<path class="st3" d="M216.12,311.51c-1.8-11.92,19.28-29.6,31.79-19.58"/>
		<g>
			<path class="st4" d="M217.96,310.97c0.24,1.01-0.39,2.02-1.4,2.26c-1.01,0.24-2.02-0.39-2.26-1.4c-0.24-1.01,0.39-2.02,1.4-2.26
				C216.71,309.34,217.72,309.96,217.96,310.97z"/>
		</g>
		<g>
			<polygon class="st4" points="252.35,297.43 242.81,292.5 247.43,291.66 248.99,287.23 			"/>
		</g>
	</g>
</g>
</svg>
